
<svg version="1.1" id="Lager_1" xmlns="http://www.w3.org/2000/svg" xmlns:xlink="http://www.w3.org/1999/xlink" x="0px" y="0px"
	 width="300px" height="98.7px" viewBox="0 0 300 98.7" style="enable-background:new 0 0 300 98.7;" xml:space="preserve">
<path d="M7.5,93.8h17.3V6.4H7.5V93.8L7.5,93.8z M31.1,93.8h17.5V52H49L59,93.8h12L81.1,52h0.3v41.8H99V6.4H75.6L65.3,52.6h-0.2
	L54.3,6.4H31.1V93.8L31.1,93.8z M105.3,93.8h18V58.4h8c9.2,0,17.9-4.2,17.8-16.4V23.6c0-8.5-5.1-17.2-15.4-17.2h-28.4V93.8
	L105.3,93.8z M123.3,23.2h2.5c5.9,0,7,3.5,7,9.6c0,5.5-1.3,8.4-6.9,8.4h-2.6V23.2L123.3,23.2z M142.7,93.8h17.7l2.1-11h13.7l2.1,11
	H196L178.5,6.4h-18.4L142.7,93.8L142.7,93.8z M169.2,44.8h0.2l3.5,21h-7L169.2,44.8L169.2,44.8z M196.6,72.8
	c0,14.3,9.2,22.4,21.8,22.4c13.7,0,22.4-6.6,22.4-22.4V57.5h-17.4v14.3c0,2.3-0.2,6.6-4.2,6.6c-4.5,0-4.5-4.3-4.5-6.6v-43
	c0-3,0.2-5.7,3.7-5.7c3.5,0,4.6,2.7,4.6,5.7v14.9h17.5V28.4c0-18.2-11.9-22.6-22.2-22.6c-10.9,0-21.8,6.6-21.8,20.9V72.8L196.6,72.8
	z M243.9,23.3h15.4v70.6H277V23.3h15V6.4h-48.1V23.3L243.9,23.3z"/>
</svg>
